<?xml version="1.0" encoding="utf-8"?>
<!-- Generator: Adobe Illustrator 22.0.0, SVG Export Plug-In . SVG Version: 6.00 Build 0)  -->
<svg version="1.1" id="圖層_1" xmlns="http://www.w3.org/2000/svg" xmlns:xlink="http://www.w3.org/1999/xlink" x="0px" y="0px"
	 viewBox="0 0 36 34" style="enable-background:new 0 0 36 34;" xml:space="preserve">
<title>hammer</title>
<desc>Created with Sketch.</desc>
<g id="hammer">
	<path fill="#ffffff" id="header-upload-white" d="M32.7,17.7l-0.8-0.6l-1.4-2.5l0.9-0.5c1.4-0.8,1.9-2.7,1.1-4.2c-0.8-1.5-2.7-2-4.1-1.1l-0.9,0.5
		l-1.4-2.5l-0.1-1c-0.1-2.3-2.6-3.6-4.5-2.5L15,7.3c-1.9,1.1-2,4-0.2,5.2l0.8,0.6l1.4,2.5l-9.4,5.5l-3.3,0.7c-2,0.4-3,2.7-2,4.5
		l1.2,2.2c1,1.8,3.5,2.1,4.8,0.5l2.2-2.6l9.4-5.5l1.4,2.5l0.1,1c0.1,2.3,2.6,3.6,4.5,2.5l6.5-3.9C34.4,21.8,34.5,19,32.7,17.7z
		 M29.3,10.6c0.5-0.3,1.1-0.1,1.4,0.4c0.3,0.5,0.1,1.1-0.4,1.4l-0.9,0.5l-1-1.8L29.3,10.6z M16.5,11.1L16,10.8
		C15.3,10.4,15.4,9.4,16,9l6.5-3.9C23.2,4.8,24,5.3,24,6l0,0.6C23.7,6.8,16.8,10.9,16.5,11.1z M7,27.6c-0.5,0.5-1.3,0.4-1.6-0.2
		l-1.2-2.2c-0.3-0.6,0-1.4,0.7-1.5l2.8-0.6l1.3,2.3L7,27.6z M10.4,24.2l-1-1.8l1.7-1l1,1.8L10.4,24.2z M13.9,22.1l-1-1.8l5.2-3.1
		l1,1.8L13.9,22.1z M17.8,12.7c0.3-0.2,6.6-3.9,6.9-4.1l5,8.9c-0.3,0.2-6.6,3.9-6.9,4.1C22.2,20.5,18.4,13.8,17.8,12.7z M31.5,21.1
		L25,25c-0.6,0.4-1.5-0.1-1.5-0.8l0-0.6c0.3-0.2,7.2-4.3,7.6-4.5l0.5,0.3C32.2,19.8,32.1,20.8,31.5,21.1z"/>
</g>
</svg>
