<svg data-name="圖層 1" xmlns="http://www.w3.org/2000/svg" viewBox="0 0 237.11 214.76">
  <path d="M176.44 163.62c-4.58-4.85-9.63-9.35-15.66-12.4a77.24 77.24 0 00-23.05-7.6c-1.43-.21-2.87-.38-4.31-.51 2.94 7 7.73 12.17 14.36 16.31a57.87 57.87 0 019 1.7 53.68 53.68 0 019.52 3.79c4.4 2.23 20.3 14.42 23.06 14.43-4.53-5.59-8.42-10.94-12.92-15.72z" fill-rule="evenodd" fill="#a0ce73"/>
  <path d="M138.86 159c-4.7-3.62-6.31-9.68-7-16-6.71-.54-13.43-.38-20.15-.49q-3.48-.06-6.93-.27a32.45 32.45 0 0010.91 18.5c3.84-.11 7.69-.44 11.52-.91a103.8 103.8 0 0111.65-.83z" fill="#4e9e35" fill-rule="evenodd"/>
  <path d="M150.57 165.55a85.88 85.88 0 00-11.79.09c-7.46 3.12-13.29 9.37-17 15.91l.81-.05c7.44-.75 14.26-3.42 21.12-6.05s14.09-4.91 21.57-5.7a12.53 12.53 0 001.25-.21 11.35 11.35 0 001.11-.38 57.31 57.31 0 00-17.07-3.61z" fill-rule="evenodd" fill="#a0ce73"/>
  <path d="M136 165.86c-4.5.41-16.5 1.34-19.73 1.62-8.91 1.08-16.91 1.82-24.85 6.42.5.33 1 .67 1.5 1a47.56 47.56 0 0028.68 6.69c2.76-6.59 6.79-13.66 14.4-15.73z" fill="#4e9e35" fill-rule="evenodd"/>
  <path d="M80.84 153.9a13.47 13.47 0 01-2.33-3.6c0-.14-.06-.25 0-.28 1.61 1 3.23 2.06 4.81 3.15 5.85 4 12.42 6 19.39 7a73.49 73.49 0 008.23.61 50.11 50.11 0 01-6.31-18.53 106.93 106.93 0 01-21.67-3.45c-8.68-2.38-15.88-7.25-23.07-12.26l-.26-.22a26.35 26.35 0 01-2.31-2.41l-.51.34c1.36 3.34 2.51 6.79 4.15 10a197.69 197.69 0 0010 18.19c3.08 4.73 7 8.91 10.76 13.18a46 46 0 009.55 8.22c2.82-4.17 8.16-6 13.44-7.28a48.09 48.09 0 01-6.28-1.58 43.82 43.82 0 01-17.59-11.08z" fill="#305e30" fill-rule="evenodd"/>
  <path d="M117.67 129h-8.8a.41.41 0 01-.42-.41v-8.8a.42.42 0 01.42-.42h8.8a.41.41 0 01.41.42v8.8a.41.41 0 01-.41.41zm-8.39-.82h8v-8h-8zM106.89 129h-8.81a.41.41 0 01-.42-.41v-8.8a.42.42 0 01.42-.42h8.81a.42.42 0 01.41.42v8.8a.41.41 0 01-.41.41zm-8.4-.82h8v-8h-8zM128.51 129h-8.8a.41.41 0 01-.42-.41v-8.8a.42.42 0 01.42-.42h8.8a.42.42 0 01.42.42v8.8a.41.41 0 01-.42.41zm-8.38-.82h8v-8h-8z" fill="#305e30"/>
  <path d="M113.36 121.27a.32.32 0 00-.27-.16.3.3 0 00-.27.16l-1.55 2.73a.34.34 0 000 .31.31.31 0 00.28.15h.78v1.68a.31.31 0 00.31.31h.94a.31.31 0 00.31-.31v-1.69h.75a.28.28 0 00.27-.15.27.27 0 000-.31zM115.38 127.58h-4.57a.31.31 0 01-.31-.31.31.31 0 01.31-.31h4.57a.31.31 0 01.32.31.31.31 0 01-.32.31zM126 123.43v-2h-3.48v2a1.73 1.73 0 001.31 1.67v1.52h-.58a.37.37 0 00-.37.37.38.38 0 00.37.38h2a.38.38 0 00.38-.38.37.37 0 00-.38-.37h-.58v-1.52a1.73 1.73 0 001.33-1.67z" fill="#305e30"/>
  <path d="M124.25 122.85h-.06a.1.1 0 010-.15l.27-.48h-.54a.11.11 0 01-.09 0 .11.11 0 010-.11l.42-.81a.12.12 0 01.15 0 .12.12 0 01.05.16l-.33.63h.55a.09.09 0 01.09.06.13.13 0 010 .12l-.36.64a.11.11 0 01-.15-.06zM102.81 121.66v-.14a.3.3 0 00-.17-.26c0-.05-.09-.08-.22-.08a.36.36 0 00-.38.34v.16a3.31 3.31 0 00-2.82 2.73 2.09 2.09 0 01.9-.21 1.92 1.92 0 011.18.39 2.15 2.15 0 01.74-.33V127a.27.27 0 01-.16 0 .32.32 0 01-.15-.35.29.29 0 00-.25-.33.3.3 0 00-.33.25.9.9 0 00.44.94c.36.2 1.22.1 1.22-.47v-2.8a2.3 2.3 0 01.85.36 1.94 1.94 0 011.18-.39 2.17 2.17 0 01.91.21 3.32 3.32 0 00-2.94-2.76z" fill="#305e30"/>
  <path d="M152.8 90.22a3.39 3.39 0 01-3.2 3.57 3.39 3.39 0 01-3.2-3.57V84c2.44-1.62 4.76-2.94 6.4-4zM143.73 77.72h-60c.85-.72 5.87-4.17 6.32-4.55h61c-.86.64-7.32 4.55-7.32 4.55z" fill="#a0ce73"/>
  <path d="M161.09 83.6a.24.24 0 01-.22-.23v-4.53a.23.23 0 01.22-.22h4.54a.22.22 0 01.22.22v4.53a.23.23 0 01-.22.23z" fill="#305e30"/>
  <rect x="160.87" y="88.19" width="4.98" height="4.98" rx=".22" ry=".22" fill="#4e9e35"/>
  <path d="M161.09 98a.23.23 0 01-.22-.23v-4.58a.23.23 0 01.22-.22h4.54a.22.22 0 01.22.22v4.53a.22.22 0 01-.22.23zM161.09 107.52a.23.23 0 01-.22-.22v-4.54a.23.23 0 01.22-.22h4.54a.22.22 0 01.22.22v4.54a.22.22 0 01-.22.22z" fill="#305e30"/>
  <path d="M161.09 112.3a.23.23 0 01-.22-.22v-4.53a.23.23 0 01.22-.23h4.54a.22.22 0 01.22.23v4.53a.22.22 0 01-.22.22z" fill="#4e9e35"/>
  <path d="M161.09 121.88a.24.24 0 01-.22-.23v-4.53a.23.23 0 01.22-.23h4.54a.22.22 0 01.22.23v4.53a.23.23 0 01-.22.23zM156.12 117.09a.22.22 0 01-.22-.22v-4.54a.22.22 0 01.22-.22h4.52a.22.22 0 01.23.22v4.54a.22.22 0 01-.23.22z" fill="#305e30"/>
  <path d="M161.09 126.66a.23.23 0 01-.22-.23v-4.53a.23.23 0 01.22-.22h4.54a.22.22 0 01.22.22v4.53a.22.22 0 01-.22.23z" fill="#305e30"/>
  <path d="M161.09 131.45a.24.24 0 01-.22-.24v-4.53a.23.23 0 01.22-.21h4.54a.22.22 0 01.22.21v4.53a.23.23 0 01-.22.24z" fill="#4e9e35"/>
  <path d="M156.12 131.55a.24.24 0 01-.22-.24v-4.52a.23.23 0 01.22-.23h4.52a.23.23 0 01.23.23v4.52a.23.23 0 01-.23.24z" fill="#305e30"/>
  <path d="M156.12 136.33a.22.22 0 01-.22-.23v-4.52a.23.23 0 01.22-.24h4.53a.23.23 0 01.22.24v4.52a.22.22 0 01-.22.23z" fill="#4e9e35"/>
  <rect x="165.81" y="68.9" width="4.97" height="4.97" rx=".22" ry=".22" fill="#4e9e35"/>
  <rect x="165.81" y="73.83" width="4.97" height="4.97" rx=".22" ry=".22" fill="#305e30"/>
  <path d="M166 88.38a.22.22 0 01-.22-.22v-4.53a.22.22 0 01.22-.23h4.53a.22.22 0 01.22.23v4.53a.22.22 0 01-.22.22z" fill="#305e30"/>
  <path d="M166 98a.22.22 0 01-.22-.23v-4.58A.22.22 0 01166 93h4.53a.22.22 0 01.22.22v4.53a.22.22 0 01-.22.23z" fill="#4e9e35"/>
  <path d="M166 102.73a.21.21 0 01-.22-.22V98a.22.22 0 01.22-.22h4.53a.22.22 0 01.22.22v4.53a.22.22 0 01-.22.22zM156.12 102.73a.22.22 0 01-.22-.22V98a.22.22 0 01.22-.22h4.53a.22.22 0 01.22.22v4.53a.21.21 0 01-.22.22z" fill="#305e30"/>
  <rect x="165.81" y="102.54" width="4.97" height="4.98" rx=".22" ry=".22" fill="#4e9e35"/>
  <path d="M166 117.09a.22.22 0 01-.22-.22v-4.54a.22.22 0 01.22-.22h4.53a.22.22 0 01.22.22v4.54a.22.22 0 01-.22.22z" fill="#305e30"/>
  <path d="M166 131.45a.23.23 0 01-.22-.24v-4.53a.21.21 0 01.22-.21h4.53a.22.22 0 01.22.21v4.53a.23.23 0 01-.22.24z" fill="#a0ce73"/>
  <path d="M171 69.24a.23.23 0 01-.23-.22v-4.53a.23.23 0 01.23-.23h4.52a.23.23 0 01.23.23V69a.22.22 0 01-.23.22z" fill="#4e9e35"/>
  <path d="M171 78.62h4.53a.23.23 0 01.23.23v4.53a.23.23 0 01-.23.23H171a.22.22 0 01-.22-.22v-4.55a.23.23 0 01.22-.22z" fill="#305e30"/>
  <rect x="170.74" y="83.4" width="4.98" height="4.98" rx=".23" ry=".23" fill="#4e9e35"/>
  <path d="M175.72 88.41a.22.22 0 00-.23-.22H171a.23.23 0 00-.23.22v4.53a.29.29 0 000 .13.22.22 0 000 .12v4.53a.23.23 0 00.23.28h4.52a.23.23 0 00.23-.23v-4.58a.17.17 0 00-.05-.12.21.21 0 00.05-.13z" fill="#305e30"/>
  <path d="M171 102.73a.22.22 0 01-.23-.22V98a.23.23 0 01.23-.22h4.52a.22.22 0 01.23.22v4.53a.22.22 0 01-.23.22z" fill="#a0ce73"/>
  <path d="M175.72 117.12a.23.23 0 00-.23-.23H171a.23.23 0 00-.23.23v4.53a.29.29 0 000 .13v.07a.21.21 0 00-.2-.17H166a.22.22 0 00-.22.22v4.53a.22.22 0 00.22.23h4.53a.21.21 0 00.2-.17.22.22 0 00.21.17h4.52a.23.23 0 00.23-.23v-4.53a.17.17 0 00-.05-.12.21.21 0 00.05-.13z" fill="#4e9e35"/>
  <path d="M175.9 88.38a.22.22 0 01-.23-.22v-4.53a.23.23 0 01.23-.23h4.53a.22.22 0 01.22.23v4.53a.22.22 0 01-.22.22z" fill="#a0ce73"/>
  <path d="M175.9 98a.23.23 0 01-.23-.23v-4.58a.22.22 0 01.23-.22h4.53a.22.22 0 01.22.22v4.53a.22.22 0 01-.22.23zM175.9 112.11h4.53a.23.23 0 01.23.23v4.53a.23.23 0 01-.23.23h-4.53a.22.22 0 01-.22-.22v-4.53a.23.23 0 01.22-.24z" fill="#4e9e35"/>
  <path d="M175.9 116.89h4.53a.22.22 0 01.22.22v4.53a.23.23 0 01-.23.23h-4.52a.23.23 0 01-.23-.23v-4.53a.23.23 0 01.23-.22zM175.9 131.45a.23.23 0 01-.23-.24v-4.53a.22.22 0 01.23-.21h4.53a.21.21 0 01.22.21v4.53a.23.23 0 01-.22.24z" fill="#a0ce73"/>
  <path d="M181.47 140.63a.24.24 0 01-.23-.23v-4.53a.23.23 0 01.23-.22H186a.22.22 0 01.22.22v4.53a.22.22 0 01-.22.23zM180.84 93.16a.22.22 0 01-.23-.22v-4.53a.22.22 0 01.23-.22h4.53a.22.22 0 01.22.22v4.53a.22.22 0 01-.22.22z" fill="#4e9e35"/>
  <path d="M180.84 102.73a.22.22 0 01-.23-.22V98a.22.22 0 01.23-.22h4.53a.22.22 0 01.22.22v4.53a.22.22 0 01-.22.22z" fill="#a0ce73"/>
  <path d="M180.84 126.66a.23.23 0 01-.23-.23v-4.53a.22.22 0 01.23-.22h4.53a.22.22 0 01.22.22v4.53a.22.22 0 01-.22.23zM185.77 69.24a.22.22 0 01-.22-.22v-4.53a.22.22 0 01.22-.23h4.53a.23.23 0 01.23.23V69a.23.23 0 01-.23.22zM174.69 58.15a.22.22 0 01-.22-.22V53.4a.22.22 0 01.22-.22h4.52a.22.22 0 01.23.22v4.53a.22.22 0 01-.23.22zM179.67 48.53h4.53a.22.22 0 01.22.22v4.53a.22.22 0 01-.22.22h-4.53a.23.23 0 01-.23-.23v-4.51a.23.23 0 01.23-.23z" fill="#4e9e35"/>
  <path d="M190.7 43.55a.22.22 0 01-.22-.22V38.8a.22.22 0 01.22-.22h4.53a.22.22 0 01.23.22v4.53a.22.22 0 01-.23.22zM191.39 58.15a.22.22 0 01-.23-.22V53.4a.22.22 0 01.23-.22h4.52a.22.22 0 01.23.22v4.53a.22.22 0 01-.23.22z" fill="#a0ce73"/>
  <path d="M185.77 78.62h4.53a.23.23 0 01.23.23v4.53a.23.23 0 01-.23.23h-4.53a.22.22 0 01-.22-.22v-4.55a.23.23 0 01.22-.22zM190.71 97.66h4.53a.22.22 0 01.22.22v4.53a.22.22 0 01-.22.22h-4.52a.23.23 0 01-.23-.23v-4.52a.22.22 0 01.22-.22zM180.84 112.3a.22.22 0 01-.23-.22v-4.53a.23.23 0 01.23-.23h4.53a.22.22 0 01.22.23v4.53a.22.22 0 01-.22.22z" fill="#4e9e35"/>
  <rect x="185.55" y="112.11" width="4.97" height="4.98" rx=".22" ry=".22" fill="#a0ce73"/>
  <path d="M190.71 126.56a.22.22 0 01-.23-.22v-4.53a.22.22 0 01.23-.22h4.52a.22.22 0 01.23.22v4.53a.22.22 0 01-.23.22z" fill="#4e9e35"/>
  <path d="M195.64 83.5a.22.22 0 01-.22-.23v-4.53a.22.22 0 01.22-.22h4.53a.22.22 0 01.22.22v4.53a.22.22 0 01-.22.23zM195.64 112.21a.23.23 0 01-.22-.22v-4.53a.22.22 0 01.22-.23h4.53a.22.22 0 01.22.23V112a.22.22 0 01-.22.22zM195.64 131.34a.21.21 0 01-.22-.21v-4.54a.22.22 0 01.22-.22h4.53a.22.22 0 01.22.22v4.54a.21.21 0 01-.22.21zM200.57 73.93a.22.22 0 01-.22-.23v-4.53a.22.22 0 01.22-.22h4.54a.23.23 0 01.22.22v4.53a.23.23 0 01-.22.23zM200.57 97.85a.22.22 0 01-.22-.23V93.1a.22.22 0 01.22-.22h4.54a.23.23 0 01.22.22v4.52a.23.23 0 01-.22.23z" fill="#a0ce73"/>
  <path d="M165.85 131.26a.22.22 0 00-.22-.22h-4.54a.22.22 0 00-.22.22v4.53a.17.17 0 010 .26v4.53a.23.23 0 00.22.22h4.54a.22.22 0 00.22-.22v-4.53a.19.19 0 010-.26z" fill="#305e30"/>
  <path d="M166 140.63a.22.22 0 01-.22-.23v-4.53a.22.22 0 01.22-.22h4.53a.22.22 0 01.22.22v4.53a.23.23 0 01-.22.23zM171 135.83a.22.22 0 01-.23-.22v-4.52a.22.22 0 01.23-.22h4.52a.22.22 0 01.23.22v4.52a.22.22 0 01-.23.22zM171 145.51a.23.23 0 01-.23-.23v-4.53a.23.23 0 01.23-.22h4.52a.22.22 0 01.23.22v4.53a.23.23 0 01-.23.23z" fill="#4e9e35"/>
  <path d="M181.47 145.51a.23.23 0 01-.23-.23v-4.53a.23.23 0 01.23-.22H186a.22.22 0 01.22.22v4.53a.22.22 0 01-.22.23zM190.71 145.51a.23.23 0 01-.23-.23v-4.53a.22.22 0 01.23-.22h4.52a.22.22 0 01.23.22v4.53a.23.23 0 01-.23.23zM185.77 159.2a.22.22 0 01-.22-.23v-4.53a.22.22 0 01.22-.22h4.53a.23.23 0 01.23.22V159a.23.23 0 01-.23.23z" fill="#a0ce73"/>
  <path d="M176.21 149.91a.22.22 0 01-.22-.22v-4.53a.22.22 0 01.22-.22h4.53a.22.22 0 01.23.22v4.53a.23.23 0 01-.23.22z" fill="#4e9e35"/>
  <path d="M185.77 135.83a.22.22 0 01-.22-.22v-4.52a.22.22 0 01.22-.22h4.53a.22.22 0 01.23.22v4.52a.22.22 0 01-.23.22zM200.57 140.53a.22.22 0 01-.22-.23v-4.52a.22.22 0 01.22-.23h4.54a.23.23 0 01.22.23v4.52a.23.23 0 01-.22.23z" fill="#a0ce73"/>
  <path d="M99.35 68.68a.22.22 0 01-.22.22H94.6a.22.22 0 01-.23-.22v-4.53a.23.23 0 01.23-.23h4.53a.22.22 0 01.22.23z" fill="#305e30"/>
  <path d="M123.27 68.68a.21.21 0 01-.22.22h-4.53a.22.22 0 01-.22-.22v-4.53a.22.22 0 01.22-.23h4.53a.22.22 0 01.22.23z" fill="#4e9e35"/>
  <path d="M142.41 68.68a.21.21 0 01-.22.22h-4.52a.22.22 0 01-.23-.22v-4.53a.23.23 0 01.23-.23h4.52a.22.22 0 01.22.23z" fill="#305e30"/>
  <rect x="151.79" y="63.92" width="4.98" height="4.98" rx=".23" ry=".23" fill="#305e30"/>
  <rect x="156.58" y="63.92" width="4.99" height="4.98" rx=".23" ry=".23" fill="#4e9e35"/>
  <path d="M108.92 63.74a.22.22 0 01-.22.23h-4.53a.23.23 0 01-.23-.23v-4.53a.22.22 0 01.23-.22h4.53a.22.22 0 01.22.22z" fill="#a0ce73"/>
  <path d="M118.49 63.74a.22.22 0 01-.22.23h-4.53a.22.22 0 01-.22-.23v-4.53a.22.22 0 01.22-.22h4.53a.22.22 0 01.22.22zM128.06 63.74a.22.22 0 01-.22.23h-4.53a.23.23 0 01-.23-.23v-4.53a.22.22 0 01.23-.22h4.53a.22.22 0 01.22.22zM137.63 63.74a.22.22 0 01-.22.23h-4.54a.23.23 0 01-.22-.23v-4.53a.23.23 0 01.22-.22h4.54a.22.22 0 01.22.22z" fill="#4e9e35"/>
  <path d="M147.2 63.74a.22.22 0 01-.2.26h-4.53a.23.23 0 01-.23-.23v-4.56a.22.22 0 01.23-.22H147a.22.22 0 01.22.22z" fill="#305e30"/>
  <path d="M156.77 63.74a.22.22 0 01-.22.23H152a.23.23 0 01-.23-.23v-4.53A.22.22 0 01152 59h4.53a.22.22 0 01.22.22z" fill="#4e9e35"/>
  <path d="M161.56 63.74a.23.23 0 01-.23.23h-4.53a.22.22 0 01-.22-.23v-4.53a.22.22 0 01.22-.22h4.53a.22.22 0 01.23.22z" fill="#305e30"/>
  <path d="M99.35 58.81a.23.23 0 01-.22.23H94.6a.24.24 0 01-.23-.23v-4.53a.23.23 0 01.23-.22h4.53a.22.22 0 01.22.22z" fill="#a0ce73"/>
  <path d="M113.7 58.81a.23.23 0 01-.21.23H109a.23.23 0 01-.22-.23v-4.53a.22.22 0 01.22-.22h4.54a.22.22 0 01.21.22z" fill="#4e9e35"/>
  <path d="M123.27 58.81a.22.22 0 01-.22.23h-4.53a.23.23 0 01-.22-.23v-4.53a.22.22 0 01.22-.22h4.53a.22.22 0 01.22.22z" fill="#a0ce73"/>
  <path d="M128.06 58.81a.23.23 0 01-.22.23h-4.53a.23.23 0 01-.23-.23v-4.53a.22.22 0 01.23-.22h4.53a.22.22 0 01.22.22zM113.49 63.93a.21.21 0 00.12-.19v-4.52a.22.22 0 00-.22-.23h-4.53a.22.22 0 00-.22.23v4.52a.22.22 0 00.21.23.19.19 0 00-.12.18v4.53a.22.22 0 00.22.22h4.54a.21.21 0 00.21-.22v-4.53a.21.21 0 00-.21-.22z" fill="#305e30"/>
  <path d="M147.2 68.68a.21.21 0 01-.22.22h-4.53a.22.22 0 01-.23-.22v-4.53a.22.22 0 01.23-.22H147a.21.21 0 01.22.22z" fill="#4e9e35"/>
  <path d="M132.62 63.92h-4.53a.22.22 0 00-.09.08.17.17 0 00-.12 0h-4.53a.22.22 0 00-.23.22v4.53a.22.22 0 00.23.22h4.53a.21.21 0 00.13-.05.21.21 0 00.12.05h4.53a.22.22 0 00.23-.22v-4.6a.23.23 0 00-.27-.23z" fill="#305e30"/>
  <path d="M152 58.81a.22.22 0 01-.21.23h-4.54a.24.24 0 01-.23-.23v-4.53a.23.23 0 01.23-.22h4.54a.21.21 0 01.21.22z" fill="#4e9e35"/>
  <path d="M152 54.06h4.53a.23.23 0 01.23.23v4.53a.22.22 0 01-.22.22H152a.23.23 0 01-.23-.23v-4.52a.23.23 0 01.23-.23z" fill="#305e30"/>
  <rect x="113.52" y="49.13" width="4.97" height="4.98" rx=".22" ry=".22" fill="#4e9e35"/>
  <path d="M147.2 53.88a.22.22 0 01-.22.22h-4.53a.22.22 0 01-.23-.22v-4.53a.23.23 0 01.23-.23H147a.22.22 0 01.22.23z" fill="#305e30"/>
  <path d="M137.63 53.88a.22.22 0 01-.22.22h-4.53a.23.23 0 01-.23-.22v-4.53a.23.23 0 01.23-.23h4.53a.22.22 0 01.22.23z" fill="#a0ce73"/>
  <path d="M142.41 58.81a.22.22 0 01-.22.23h-4.52a.23.23 0 01-.23-.23v-4.52a.23.23 0 01.23-.23h4.52a.22.22 0 01.22.23zM161.56 53.88a.22.22 0 01-.23.22h-4.53a.22.22 0 01-.22-.22v-4.53a.22.22 0 01.22-.23h4.53a.23.23 0 01.23.23z" fill="#4e9e35"/>
  <rect x="165.76" y="43.55" width="4.98" height="4.98" rx=".23" ry=".23" fill="#4e9e35"/>
  <rect x="118.3" y="44.19" width="4.97" height="4.98" rx=".22" ry=".22" fill="#4e9e35"/>
  <rect x="127.87" y="44.19" width="4.98" height="4.98" rx=".22" ry=".22" fill="#a0ce73"/>
  <path d="M156.77 48.94a.21.21 0 01-.22.22H152a.22.22 0 01-.23-.22v-4.53a.22.22 0 01.23-.22h4.53a.22.22 0 01.22.22z" fill="#4e9e35"/>
  <path d="M94.6 39.25h4.53a.22.22 0 01.22.22V44a.22.22 0 01-.22.22H94.6a.22.22 0 01-.22-.22v-4.52a.23.23 0 01.22-.23z" fill="#a0ce73"/>
  <path d="M113.7 44a.22.22 0 01-.21.22H109a.22.22 0 01-.22-.22v-4.52a.22.22 0 01.22-.23h4.54a.22.22 0 01.21.23zM142.41 48.94a.22.22 0 01-.22.22h-4.53a.22.22 0 01-.22-.22v-4.53a.22.22 0 01.22-.22h4.53a.22.22 0 01.22.22zM147.2 44a.22.22 0 01-.22.22h-4.53a.22.22 0 01-.23-.22v-4.52a.22.22 0 01.23-.22H147a.22.22 0 01.22.22z" fill="#4e9e35"/>
  <path d="M113.61 34.14a.22.22 0 01-.23.22h-4.52a.22.22 0 01-.22-.22v-4.53a.21.21 0 01.22-.22h4.52a.22.22 0 01.23.22z" fill="#a0ce73"/>
  <rect x="156.48" y="29.39" width="4.98" height="4.98" rx=".22" ry=".22" fill="#a0ce73"/>
  <path d="M166.08 63.92h-4.53a.22.22 0 00-.22.23v4.53a.22.22 0 00.22.22h-3.64s-2.48 1.68-2.37 1.54l-6.4 4-7.34 4.49-7.91 4.88L76 83.3l20.1-14.46 3.32.06h4.53a.22.22 0 00.23-.22v-4.53A.2.2 0 00104 64a.22.22 0 00.18-.21v-4.58a.23.23 0 00-.23-.22h-4.57a.22.22 0 00-.22.22v2.84h-4.11a3.31 3.31 0 00-2 .64l-29.4 21.12a3.08 3.08 0 00-1.79 2.45v37s4.74 3.08 6.13 4.14l.18-37.4 63.46.56v45.77l6.28.75.09-47.87L156.15 78v.6a.22.22 0 00.22.22h4.53a.22.22 0 00.23-.22v-3.69l1.65-1h2.95a.23.23 0 00.22-.23v-4.56a.22.22 0 00-.22-.22h.35a.21.21 0 00.22-.22v-4.53a.22.22 0 00-.22-.23z" fill="#305e30"/>
  <path d="M170.78 68.68a.22.22 0 01-.22.22H166a.21.21 0 01-.22-.22v-4.53a.22.22 0 01.22-.23h4.53a.22.22 0 01.22.23z" fill="#a0ce73"/>
  <path d="M170.74 63.74a.23.23 0 01-.23.23H166a.23.23 0 01-.23-.23v-4.53A.22.22 0 01166 59h4.52a.22.22 0 01.23.22z" fill="#4e9e35"/>
  <path d="M166 58.81a.22.22 0 01-.22.23h-4.58a.23.23 0 01-.22-.23v-4.53a.22.22 0 01.22-.22h4.53a.22.22 0 01.22.22z" fill="#4e9e35"/>
  <path d="M166 44a.22.22 0 01-.22.22h-4.58a.22.22 0 01-.2-.22v-4.52a.22.22 0 01.22-.23h4.53a.22.22 0 01.22.23z" fill="#a0ce73"/>
  <path d="M212.57 0H46.89a24.57 24.57 0 00-24.54 24.54v109.7a24.56 24.56 0 00-22.2 24.42v31.56a24.56 24.56 0 0024.54 24.54H27a24.57 24.57 0 0024.54-24.54v-31.56a24.56 24.56 0 00-22.21-24.42V24.54A17.56 17.56 0 0146.89 7h165.68a17.55 17.55 0 0117.53 17.54v165.68a17.54 17.54 0 01-17.53 17.52H73.18a3.51 3.51 0 000 7h139.39a24.57 24.57 0 0024.54-24.54V24.54A24.57 24.57 0 00212.57 0zM7.16 158.66a17.55 17.55 0 0115.19-17.35v22H7.16zm37.4 31.56A17.55 17.55 0 0127 207.74h-2.31a17.54 17.54 0 01-17.53-17.52v-19.87h37.4zm0-31.56v4.68h-15.2v-22a17.55 17.55 0 0115.2 17.32z" fill="#254b27" fill-rule="evenodd"/>
</svg>
