<svg width="27" height="23" xmlns="http://www.w3.org/2000/svg">
  <g fill="none" fill-rule="evenodd">
    <path d="M1 1h4.203l2.842 12.156c.463 1.95 2.172 3.324 4.138 3.325H22.33c.597 0 1.118-.413 1.265-1.004l2.365-9.496c.099-.398.012-.82-.235-1.143a1.294 1.294 0 0 0-1.029-.513H9.98" stroke="#FFF" stroke-width="1.901" stroke-linecap="round"/>
    <path fill="#FFF" d="M11.081 18.926a2.016 2.037 0 1 0 0 4.074 2.016 2.037 0 1 0 0-4.074zM20.758 18.926a2.016 2.037 0 1 0 0 4.074 2.016 2.037 0 1 0 0-4.074z"/>
  </g>
</svg>
